<?xml version="1.0" standalone="no"?>
<!DOCTYPE svg PUBLIC "-//W3C//DTD SVG 20010904//EN"
 "http://www.w3.org/TR/2001/REC-SVG-20010904/DTD/svg10.dtd">
<svg version="1.0" xmlns="http://www.w3.org/2000/svg"
 width="48.000000pt" height="48.000000pt" viewBox="0 0 48.000000 48.000000"
 preserveAspectRatio="xMidYMid meet">

<g transform="translate(0.000000,48.000000) scale(0.100000,-0.100000)"
fill="#000000" stroke="none">
<path d="M215 435 c-5 -2 -22 -6 -37 -9 -35 -8 -94 -59 -115 -100 -20 -37 -21
-131 -3 -166 37 -73 101 -113 180 -113 79 0 143 40 180 113 18 34 17 129 -2
165 -18 33 -62 77 -93 93 -23 11 -95 23 -110 17z m108 -90 c4 -8 2 -17 -4 -20
-5 -4 -3 -15 6 -28 35 -50 -5 -66 -50 -21 -16 16 -32 23 -42 20 -16 -7 -45 22
-37 36 3 5 20 8 39 8 19 0 37 5 40 10 9 15 42 12 48 -5z m-131 -80 c-9 -19 -9
-31 0 -50 9 -21 9 -29 -4 -42 -15 -14 -18 -13 -33 10 -10 15 -13 32 -9 39 6
10 5 11 -7 1 -13 -10 -19 -10 -35 2 -19 15 -19 15 0 30 16 12 22 12 35 2 12
-10 13 -9 7 1 -4 7 -1 24 9 39 15 23 18 24 33 10 13 -13 13 -21 4 -42z m148
-48 c0 -7 -6 -22 -14 -33 -10 -13 -11 -23 -4 -31 7 -9 7 -18 -2 -28 -12 -14
-15 -14 -36 0 -13 8 -37 15 -53 15 -16 0 -32 3 -35 8 -8 14 21 43 37 36 10 -3
25 4 39 19 25 27 68 35 68 14z"/>
</g>
</svg>
